<mxfile host="app.diagrams.net" agent="Mozilla/5.0 (X11; Ubuntu; Linux x86_64; rv:135.0) Gecko/20100101 Firefox/135.0" version="26.0.11">
  <diagram name="Page-1" id="D0ZYBqZUJJDYc2GaFiRw">
    <mxGraphModel dx="2074" dy="1182" grid="1" gridSize="10" guides="1" tooltips="1" connect="1" arrows="1" fold="1" page="1" pageScale="1" pageWidth="850" pageHeight="1100" math="0" shadow="0">
      <root>
        <mxCell id="0" />
        <mxCell id="1" parent="0" />
        <mxCell id="jITupCVdydCZtohnCkaR-7" value="Listar" style="swimlane;whiteSpace=wrap;html=1;" parent="1" vertex="1">
          <mxGeometry x="110" y="180" width="240" height="140" as="geometry" />
        </mxCell>
        <mxCell id="jITupCVdydCZtohnCkaR-2" value="&lt;div&gt;Filtrar&lt;/div&gt;" style="whiteSpace=wrap;html=1;aspect=fixed;" parent="jITupCVdydCZtohnCkaR-7" vertex="1">
          <mxGeometry x="25" y="40" width="80" height="80" as="geometry" />
        </mxCell>
        <mxCell id="jITupCVdydCZtohnCkaR-3" value="Ordenar" style="whiteSpace=wrap;html=1;aspect=fixed;" parent="jITupCVdydCZtohnCkaR-7" vertex="1">
          <mxGeometry x="135" y="40" width="80" height="80" as="geometry" />
        </mxCell>
        <mxCell id="jITupCVdydCZtohnCkaR-8" value="Editar" style="swimlane;whiteSpace=wrap;html=1;" parent="1" vertex="1">
          <mxGeometry x="440" y="180" width="240" height="140" as="geometry" />
        </mxCell>
        <mxCell id="jITupCVdydCZtohnCkaR-10" value="Deletar" style="swimlane;whiteSpace=wrap;html=1;" parent="1" vertex="1">
          <mxGeometry x="440" y="380" width="240" height="140" as="geometry" />
        </mxCell>
        <mxCell id="jITupCVdydCZtohnCkaR-12" value="Confirmação" style="whiteSpace=wrap;html=1;aspect=fixed;" parent="jITupCVdydCZtohnCkaR-10" vertex="1">
          <mxGeometry x="30" y="40" width="80" height="80" as="geometry" />
        </mxCell>
        <mxCell id="jITupCVdydCZtohnCkaR-11" value="Visualizar" style="swimlane;whiteSpace=wrap;html=1;" parent="1" vertex="1">
          <mxGeometry x="110" y="380" width="240" height="140" as="geometry" />
        </mxCell>
        <mxCell id="jITupCVdydCZtohnCkaR-13" value="Menos dados" style="whiteSpace=wrap;html=1;aspect=fixed;" parent="jITupCVdydCZtohnCkaR-11" vertex="1">
          <mxGeometry x="20" y="40" width="80" height="80" as="geometry" />
        </mxCell>
        <mxCell id="jITupCVdydCZtohnCkaR-14" value="Mais dados" style="whiteSpace=wrap;html=1;aspect=fixed;" parent="jITupCVdydCZtohnCkaR-11" vertex="1">
          <mxGeometry x="130" y="40" width="80" height="80" as="geometry" />
        </mxCell>
      </root>
    </mxGraphModel>
  </diagram>
</mxfile>
